<svg xmlns="http://www.w3.org/2000/svg" xmlns:xlink="http://www.w3.org/1999/xlink" width="24" height="24" viewBox="0 0 24 24" fill="none"><g opacity="1"  transform="translate(0 0)  rotate(0)"><g opacity="1"  transform="translate(6 8.5)  rotate(0)"><path id="Vector-8" fill-rule="evenodd" style="fill:#efeeea" opacity="1" d="M12.1463,-0.73559c0.04833,0.00961 0.09523,0.02383 0.1407,0.04268c0.04553,0.01885 0.08877,0.04195 0.1297,0.06931c0.04093,0.02736 0.0788,0.05845 0.1136,0.09327c0.03487,0.03482 0.06597,0.07271 0.0933,0.11365c0.02733,0.04095 0.05043,0.08417 0.0693,0.12966c0.01887,0.0455 0.0331,0.0924 0.0427,0.1407c0.0096,0.0483 0.0144,0.09707 0.0144,0.14632c0,0.04925 -0.0048,0.09802 -0.0144,0.14632c-0.0096,0.0483 -0.02383,0.0952 -0.0427,0.1407c-0.01887,0.0455 -0.04197,0.08872 -0.0693,0.12966c-0.02733,0.04095 -0.05843,0.07883 -0.0933,0.11365c-0.0348,0.03482 -0.07267,0.06591 -0.1136,0.09327c-0.04093,0.02736 -0.08417,0.05046 -0.1297,0.06931c-0.04547,0.01885 -0.09237,0.03307 -0.1407,0.04268c-0.04827,0.00961 -0.09703,0.01441 -0.1463,0.01441h-12c-0.04925,0 -0.09802,-0.0048 -0.14632,-0.01441c-0.0483,-0.00961 -0.0952,-0.02383 -0.1407,-0.04268c-0.0455,-0.01885 -0.08872,-0.04195 -0.12966,-0.06931c-0.04095,-0.02736 -0.07883,-0.05845 -0.11365,-0.09327c-0.03482,-0.03482 -0.06591,-0.07271 -0.09327,-0.11365c-0.02736,-0.04095 -0.05046,-0.08417 -0.06931,-0.12966c-0.01885,-0.0455 -0.03307,-0.0924 -0.04268,-0.1407c-0.00961,-0.0483 -0.01441,-0.09707 -0.01441,-0.14632c0,-0.04925 0.0048,-0.09802 0.01441,-0.14632c0.00961,-0.0483 0.02383,-0.0952 0.04268,-0.1407c0.01885,-0.0455 0.04195,-0.08872 0.06931,-0.12966c0.02736,-0.04095 0.05845,-0.07883 0.09327,-0.11365c0.03482,-0.03482 0.07271,-0.06591 0.11365,-0.09327c0.04095,-0.02736 0.08417,-0.05046 0.12966,-0.06931c0.0455,-0.01885 0.0924,-0.03307 0.1407,-0.04268c0.0483,-0.00961 0.09707,-0.01441 0.14632,-0.01441h12c0.04927,0 0.09803,0.0048 0.1463,0.01441zM0,3.25h12c0.04927,0 0.09803,0.0048 0.1463,0.01441c0.04833,0.00961 0.09523,0.02383 0.1407,0.04268c0.04553,0.01885 0.08877,0.04195 0.1297,0.06931c0.04093,0.02736 0.0788,0.05845 0.1136,0.09327c0.03487,0.03482 0.06597,0.0727 0.0933,0.11365c0.02733,0.04095 0.05043,0.08417 0.0693,0.12967c0.01887,0.04549 0.0331,0.09239 0.0427,0.14069c0.0096,0.0483 0.0144,0.09707 0.0144,0.14632c0,0.04925 -0.0048,0.09802 -0.0144,0.14632c-0.0096,0.0483 -0.02383,0.0952 -0.0427,0.14069c-0.01887,0.0455 -0.04197,0.08872 -0.0693,0.12967c-0.02733,0.04095 -0.05843,0.07883 -0.0933,0.11365c-0.0348,0.03482 -0.07267,0.06591 -0.1136,0.09327c-0.04093,0.02736 -0.08417,0.05046 -0.1297,0.06931c-0.04547,0.01885 -0.09237,0.03307 -0.1407,0.04268c-0.04827,0.00961 -0.09703,0.01441 -0.1463,0.01441h-12c-0.04925,0 -0.09802,-0.0048 -0.14632,-0.01441c-0.0483,-0.00961 -0.0952,-0.02383 -0.1407,-0.04268c-0.0455,-0.01885 -0.08872,-0.04195 -0.12966,-0.06931c-0.04095,-0.02736 -0.07883,-0.05845 -0.11365,-0.09327c-0.03482,-0.03482 -0.06591,-0.0727 -0.09327,-0.11365c-0.02736,-0.04095 -0.05046,-0.08417 -0.06931,-0.12967c-0.01885,-0.04549 -0.03307,-0.09239 -0.04268,-0.14069c-0.00961,-0.0483 -0.01441,-0.09707 -0.01441,-0.14632c0,-0.04925 0.0048,-0.09802 0.01441,-0.14632c0.00961,-0.0483 0.02383,-0.0952 0.04268,-0.14069c0.01885,-0.0455 0.04195,-0.08872 0.06931,-0.12967c0.02736,-0.04095 0.05845,-0.07883 0.09327,-0.11365c0.03482,-0.03482 0.07271,-0.06591 0.11365,-0.09327c0.04095,-0.02736 0.08417,-0.05046 0.12966,-0.06931c0.0455,-0.01885 0.0924,-0.03307 0.1407,-0.04268c0.0483,-0.00961 0.09707,-0.01441 0.14632,-0.01441zM0,7.25h12c0.04927,0 0.09803,0.0048 0.1463,0.01441c0.04833,0.00961 0.09523,0.02383 0.1407,0.04268c0.04553,0.01885 0.08877,0.04195 0.1297,0.06931c0.04093,0.02736 0.0788,0.05845 0.1136,0.09327c0.03487,0.03482 0.06597,0.0727 0.0933,0.11365c0.02733,0.04095 0.05043,0.08417 0.0693,0.12967c0.01887,0.04549 0.0331,0.09239 0.0427,0.14069c0.0096,0.0483 0.0144,0.09707 0.0144,0.14632c0,0.04925 -0.0048,0.09802 -0.0144,0.14632c-0.0096,0.0483 -0.02383,0.0952 -0.0427,0.14069c-0.01887,0.0455 -0.04197,0.08872 -0.0693,0.12967c-0.02733,0.04095 -0.05843,0.07883 -0.0933,0.11365c-0.0348,0.03482 -0.07267,0.06591 -0.1136,0.09327c-0.04093,0.02736 -0.08417,0.05046 -0.1297,0.06931c-0.04547,0.01885 -0.09237,0.03307 -0.1407,0.04268c-0.04827,0.00961 -0.09703,0.01441 -0.1463,0.01441h-12c-0.04925,0 -0.09802,-0.0048 -0.14632,-0.01441c-0.0483,-0.00961 -0.0952,-0.02383 -0.1407,-0.04268c-0.0455,-0.01885 -0.08872,-0.04195 -0.12966,-0.06931c-0.04095,-0.02736 -0.07883,-0.05845 -0.11365,-0.09327c-0.03482,-0.03482 -0.06591,-0.0727 -0.09327,-0.11365c-0.02736,-0.04095 -0.05046,-0.08417 -0.06931,-0.12967c-0.01885,-0.04549 -0.03307,-0.09239 -0.04268,-0.14069c-0.00961,-0.0483 -0.01441,-0.09707 -0.01441,-0.14632c0,-0.04925 0.0048,-0.09802 0.01441,-0.14632c0.00961,-0.0483 0.02383,-0.0952 0.04268,-0.14069c0.01885,-0.0455 0.04195,-0.08872 0.06931,-0.12967c0.02736,-0.04095 0.05845,-0.07883 0.09327,-0.11365c0.03482,-0.03482 0.07271,-0.06591 0.11365,-0.09327c0.04095,-0.02736 0.08417,-0.05046 0.12966,-0.06931c0.0455,-0.01885 0.0924,-0.03307 0.1407,-0.04268c0.0483,-0.00961 0.09707,-0.01441 0.14632,-0.01441z"></path></g></g></svg>