<svg xmlns="http://www.w3.org/2000/svg" xmlns:xlink="http://www.w3.org/1999/xlink" width="24" height="24" viewBox="0 0 24 24" fill="none"><g opacity="1"  transform="translate(0 0)  rotate(0)"><g opacity="1"  transform="translate(5 8.5)  rotate(0)"><path id="Vector-6" fill-rule="evenodd" style="fill:#efeeea" opacity="1" d="M11.66 -0.75L2.33 -0.75Q2.25613 -0.75 2.18368 -0.735589Q2.11123 -0.721178 2.04299 -0.69291Q1.97474 -0.664641 1.91332 -0.623602Q1.8519 -0.582563 1.79967 -0.53033Q1.74744 -0.478097 1.7064 -0.416678Q1.66536 -0.355258 1.63709 -0.287013Q1.60882 -0.218767 1.59441 -0.146318Q1.58 -0.0738685 1.58 0Q1.58 0.0738685 1.59441 0.146318Q1.60882 0.218767 1.63709 0.287013Q1.66536 0.355258 1.7064 0.416678Q1.74744 0.478097 1.79967 0.53033Q1.8519 0.582563 1.91332 0.623602Q1.97474 0.664641 2.04299 0.69291Q2.11123 0.721178 2.18368 0.735589Q2.25613 0.75 2.33 0.75L11.66 0.75Q11.7339 0.75 11.8063 0.735589Q11.8788 0.721178 11.947 0.69291Q12.0153 0.664641 12.0767 0.623602Q12.1381 0.582563 12.1903 0.53033Q12.2426 0.478097 12.2836 0.416678Q12.3246 0.355258 12.3529 0.287013Q12.3812 0.218767 12.3956 0.146318Q12.41 0.0738685 12.41 0Q12.41 -0.0738685 12.3956 -0.146318Q12.3812 -0.218767 12.3529 -0.287013Q12.3246 -0.355258 12.2836 -0.416678Q12.2426 -0.478097 12.1903 -0.53033Q12.1381 -0.582563 12.0767 -0.623602Q12.0153 -0.664641 11.947 -0.69291Q11.8788 -0.721178 11.8063 -0.735589Q11.7339 -0.75 11.66 -0.75ZM0 3.25L14 3.25Q14.0739 3.25 14.1463 3.26441Q14.2188 3.27882 14.287 3.30709Q14.3553 3.33536 14.4167 3.3764Q14.4781 3.41744 14.5303 3.46967Q14.5826 3.5219 14.6236 3.58332Q14.6646 3.64474 14.6929 3.71299Q14.7212 3.78123 14.7356 3.85368Q14.75 3.92613 14.75 4Q14.75 4.07387 14.7356 4.14632Q14.7212 4.21877 14.6929 4.28701Q14.6646 4.35526 14.6236 4.41668Q14.5826 4.4781 14.5303 4.53033Q14.4781 4.58256 14.4167 4.6236Q14.3553 4.66464 14.287 4.69291Q14.2188 4.72118 14.1463 4.73559Q14.0739 4.75 14 4.75L0 4.75Q-0.0738685 4.75 -0.146318 4.73559Q-0.218767 4.72118 -0.287013 4.69291Q-0.355258 4.66464 -0.416678 4.6236Q-0.478097 4.58256 -0.53033 4.53033Q-0.582563 4.4781 -0.623602 4.41668Q-0.664641 4.35526 -0.69291 4.28701Q-0.721178 4.21877 -0.735589 4.14632Q-0.75 4.07387 -0.75 4Q-0.75 3.92613 -0.735589 3.85368Q-0.721178 3.78123 -0.69291 3.71299Q-0.664641 3.64474 -0.623602 3.58332Q-0.582563 3.5219 -0.53033 3.46967Q-0.478097 3.41744 -0.416678 3.3764Q-0.355258 3.33536 -0.287013 3.30709Q-0.218767 3.27882 -0.146318 3.26441Q-0.0738685 3.25 0 3.25ZM2.33 7.25L11.66 7.25Q11.7339 7.25 11.8063 7.26441Q11.8788 7.27882 11.947 7.30709Q12.0153 7.33536 12.0767 7.3764Q12.1381 7.41744 12.1903 7.46967Q12.2426 7.5219 12.2836 7.58332Q12.3246 7.64474 12.3529 7.71299Q12.3812 7.78123 12.3956 7.85368Q12.41 7.92613 12.41 8Q12.41 8.07387 12.3956 8.14632Q12.3812 8.21877 12.3529 8.28701Q12.3246 8.35526 12.2836 8.41668Q12.2426 8.4781 12.1903 8.53033Q12.1381 8.58256 12.0767 8.6236Q12.0153 8.66464 11.947 8.69291Q11.8788 8.72118 11.8063 8.73559Q11.7339 8.75 11.66 8.75L2.33 8.75Q2.25613 8.75 2.18368 8.73559Q2.11123 8.72118 2.04299 8.69291Q1.97474 8.66464 1.91332 8.6236Q1.8519 8.58256 1.79967 8.53033Q1.74744 8.4781 1.7064 8.41668Q1.66536 8.35526 1.63709 8.28701Q1.60882 8.21877 1.59441 8.14632Q1.58 8.07387 1.58 8Q1.58 7.92613 1.59441 7.85368Q1.60882 7.78123 1.63709 7.71299Q1.66536 7.64474 1.7064 7.58332Q1.74744 7.5219 1.79967 7.46967Q1.8519 7.41744 1.91332 7.3764Q1.97474 7.33536 2.04299 7.30709Q2.11123 7.27882 2.18368 7.26441Q2.25613 7.25 2.33 7.25Z"></path></g></g></svg>